<?xml version="1.0" encoding="UTF-8" standalone="no"?><!DOCTYPE svg PUBLIC "-//W3C//DTD SVG 1.1//EN" "http://www.w3.org/Graphics/SVG/1.1/DTD/svg11.dtd"><svg width="100%" height="100%" viewBox="0 0 1432 328" version="1.1" xmlns="http://www.w3.org/2000/svg" xmlns:xlink="http://www.w3.org/1999/xlink" xml:space="preserve" xmlns:serif="http://www.serif.com/" style="fill-rule:evenodd;clip-rule:evenodd;stroke-linejoin:round;stroke-miterlimit:2;"><path d="M220.316,41.893c-0.007,6.434 -1.234,12.582 -3.447,18.235c19.396,7.755 36.416,20.152 49.697,35.835c5.726,-4.61 12.483,-7.98 19.87,-9.731c-16.995,-21.626 -39.888,-38.396 -66.254,-47.909c0.081,1.182 0.138,2.367 0.134,3.57Z" style="fill:#11956d;fill-rule:nonzero;"/><path d="M61.78,243.733c-10.573,-17.277 -17.106,-37.283 -18.32,-58.712c-0.569,0.021 -1.129,0.042 -1.698,0.042c-7.122,-0.009 -13.886,-1.506 -20.022,-4.185c0.61,29.201 9.666,56.327 24.829,79.032c3.812,-6.454 9.011,-11.992 15.211,-16.177Z" style="fill:#11956d;fill-rule:nonzero;"/><path d="M297.988,185.389c-0.569,0 -1.133,-0.024 -1.694,-0.045c-1.268,21.336 -7.796,41.247 -18.333,58.447c6.21,4.144 11.445,9.632 15.286,16.051c15.065,-22.592 24.092,-49.55 24.771,-78.583c-6.14,2.662 -12.913,4.142 -20.03,4.13Z" style="fill:#11956d;fill-rule:nonzero;"/><path d="M202.008,300.266c-10.311,2.696 -21.126,4.14 -32.284,4.123c-10.999,-0.013 -21.667,-1.432 -31.836,-4.082c-2.249,7.252 -6.094,13.792 -11.121,19.228c13.584,4.127 27.994,6.365 42.927,6.381c15.07,0.021 29.615,-2.216 43.317,-6.381c-4.99,-5.456 -8.794,-12.013 -11.003,-19.269Z" style="fill:#11956d;fill-rule:nonzero;"/><path d="M73.413,95.717c13.318,-15.65 30.375,-28.006 49.787,-35.712c-2.196,-5.657 -3.411,-11.805 -3.403,-18.239c-0,-1.202 0.062,-2.393 0.143,-3.575c-26.386,9.449 -49.321,26.162 -66.377,47.742c7.387,1.768 14.131,5.159 19.85,9.784Z" style="fill:#11956d;fill-rule:nonzero;"/><path d="M211.887,41.885c-0.03,23.098 -18.78,41.799 -41.881,41.774c-23.102,-0.032 -41.807,-18.782 -41.775,-41.885c0.029,-23.098 18.779,-41.802 41.882,-41.774c23.097,0.032 41.802,18.782 41.774,41.885Z" style="fill:#11956d;fill-rule:nonzero;"/><path d="M83.652,134.858c-0.03,23.098 -18.78,41.802 -41.878,41.774c-23.102,-0.032 -41.802,-18.782 -41.774,-41.884c0.029,-23.099 18.779,-41.804 41.876,-41.775c23.103,0.033 41.808,18.783 41.776,41.885Z" style="fill:#11956d;fill-rule:nonzero;"/><path d="M129.938,285.463c-0.03,23.102 -18.78,41.803 -41.882,41.775c-23.101,-0.029 -41.802,-18.779 -41.77,-41.882c0.025,-23.097 18.778,-41.802 41.876,-41.774c23.103,0.034 41.808,18.784 41.776,41.881Z" style="fill:#11956d;fill-rule:nonzero;"/><path d="M339.881,135.185c-0.029,23.098 -18.779,41.803 -41.881,41.774c-23.102,-0.033 -41.807,-18.783 -41.775,-41.884c0.029,-23.098 18.78,-41.803 41.881,-41.771c23.098,0.029 41.803,18.779 41.775,41.881Z" style="fill:#11956d;fill-rule:nonzero;"/><path d="M291.926,285.671c-0.033,23.102 -18.783,41.804 -41.885,41.775c-23.098,-0.033 -41.799,-18.783 -41.771,-41.881c0.029,-23.101 18.779,-41.803 41.882,-41.774c23.097,0.029 41.802,18.779 41.774,41.88Z" style="fill:#11956d;fill-rule:nonzero;"/><g><path d="M1203.06,298.337l96.414,-129.912l-85.021,-119.37l39.279,0l45.231,63.936c9.409,13.263 16.098,23.466 20.065,30.608c5.555,-9.069 12.13,-18.535 19.725,-28.397l50.163,-66.147l35.879,0l-87.572,117.499l94.373,131.783l-40.81,-0l-62.745,-88.932c-3.515,-5.101 -7.142,-10.656 -10.883,-16.664c-5.555,9.069 -9.522,15.304 -11.903,18.704l-62.575,86.892l-39.62,-0Z" style="fill-rule:nonzero;"/><path d="M977.411,298.337l0,-249.282l110.527,0c22.219,0 39.11,2.239 50.673,6.717c11.563,4.478 20.802,12.385 27.717,23.721c6.915,11.336 10.372,23.862 10.372,37.579c0,17.684 -5.724,32.592 -17.174,44.721c-11.449,12.13 -29.134,19.838 -53.053,23.126c8.729,4.194 15.36,8.332 19.895,12.413c9.636,8.842 18.761,19.895 27.377,33.158l43.36,67.847l-41.49,-0l-32.988,-51.863c-9.636,-14.964 -17.571,-26.413 -23.806,-34.348c-6.235,-7.936 -11.818,-13.49 -16.749,-16.665c-4.931,-3.174 -9.948,-5.384 -15.049,-6.631c-3.741,-0.794 -9.862,-1.19 -18.364,-1.19l-38.26,-0l0,110.697l-32.988,-0Zm32.988,-139.265l70.908,0c15.077,0 26.866,-1.558 35.368,-4.676c8.503,-3.117 14.964,-8.105 19.385,-14.963c4.421,-6.859 6.632,-14.312 6.632,-22.361c-0,-11.789 -4.28,-21.482 -12.838,-29.077c-8.559,-7.595 -22.077,-11.393 -40.555,-11.393l-78.9,0l0,82.47Z" style="fill-rule:nonzero;"/><path d="M695.992,176.927c-0,-41.377 11.109,-73.77 33.328,-97.179c22.219,-23.409 50.899,-35.114 86.041,-35.114c23.012,0 43.758,5.498 62.235,16.494c18.478,10.996 32.563,26.328 42.256,45.997c9.692,19.668 14.538,41.972 14.538,66.911c0,25.28 -5.101,47.895 -15.303,67.847c-10.203,19.952 -24.656,35.057 -43.361,45.316c-18.705,10.259 -38.883,15.389 -60.535,15.389c-23.466,-0 -44.438,-5.668 -62.916,-17.004c-18.477,-11.336 -32.478,-26.81 -42,-46.422c-9.522,-19.611 -14.283,-40.356 -14.283,-62.235Zm34.008,0.51c-0,30.041 8.077,53.705 24.231,70.993c16.154,17.287 36.417,25.931 60.79,25.931c24.826,-0 45.259,-8.729 61.3,-26.186c16.041,-17.458 24.061,-42.228 24.061,-74.309c0,-20.292 -3.429,-38.004 -10.288,-53.138c-6.858,-15.134 -16.89,-26.867 -30.097,-35.199c-13.207,-8.332 -28.029,-12.498 -44.466,-12.498c-23.352,0 -43.446,8.021 -60.28,24.061c-16.834,16.041 -25.251,42.822 -25.251,80.345Z" style="fill-rule:nonzero;"/><path d="M563.019,298.337l-0,-219.864l-82.131,-0l0,-29.418l197.589,0l0,29.418l-82.47,-0l-0,219.864l-32.988,-0Z" style="fill-rule:nonzero;"/><path d="M418.483,84.254l0,-35.199l30.608,0l-0,35.199l-30.608,0Zm0,214.083l0,-180.585l30.608,0l-0,180.585l-30.608,-0Z" style="fill-rule:nonzero;"/></g></svg>