<?xml version="1.0" encoding="UTF-8" standalone="no"?>
<svg
   viewBox="0 0 800 400"
   width="800"
   height="400"
   version="1.1"
   id="svg15"
   xmlns="http://www.w3.org/2000/svg"
   xmlns:svg="http://www.w3.org/2000/svg"
   xmlns:rdf="http://www.w3.org/1999/02/22-rdf-syntax-ns#"
   xmlns:cc="http://creativecommons.org/ns#"
   xmlns:dc="http://purl.org/dc/elements/1.1/">
  <title
     id="title1">TestBench – Swagger/OpenAPI Docs (New)</title>
  <defs
     id="defs2">
    <linearGradient
       id="gradNew"
       x1="0"
       y1="0"
       x2="1"
       y2="1">
      <stop
         offset="0%"
         stop-color="#34D399"
         id="stop1" />
      <stop
         offset="100%"
         stop-color="#059669"
         id="stop2" />
    </linearGradient>
    <filter
       id="softShadow"
       x="-0.0034090909"
       y="-0.0053571429"
       width="1.0068182"
       height="1.0107143">
      <feDropShadow
         dx="0"
         dy="4"
         stdDeviation="6"
         flood-color="#0f172a"
         flood-opacity="0.25" />
    </filter>
  </defs>
  <!-- Document card -->
  <g
     filter="url(#softShadow)"
     id="g5">
    <rect
       x="180"
       y="60"
       width="440"
       height="280"
       rx="24"
       ry="24"
       fill="none"
       stroke="#0f172a"
       stroke-width="3"
       id="rect2" />
    <rect
       x="180"
       y="60"
       width="440"
       height="72"
       rx="24"
       ry="24"
       fill="url(#gradNew)"
       id="rect3" />
    <!-- header "tabs" -->
    <circle
       cx="212"
       cy="96"
       r="7"
       fill="white"
       opacity="0.9"
       id="circle3" />
    <circle
       cx="236"
       cy="96"
       r="7"
       fill="white"
       opacity="0.9"
       id="circle4" />
    <circle
       cx="260"
       cy="96"
       r="7"
       fill="white"
       opacity="0.9"
       id="circle5" />
  </g>
  <!-- Center badge inspired by API/Swagger, without using any trademarked logo -->
  <g
     id="g11">
    <circle
       cx="400"
       cy="210"
       r="74"
       fill="#10B981"
       opacity="0.25"
       id="circle6" />
    <circle
       cx="400"
       cy="210"
       r="60"
       fill="#10B981"
       id="circle7" />
    <!-- "API" glyph -->
    <g
       stroke="white"
       stroke-width="10"
       stroke-linecap="round"
       stroke-linejoin="round"
       fill="none"
       id="g10">
      <path
         d="M365 200 l-25 0 0 20 25 0"
         id="path7" />
      <path
         d="M388 240 l0 -60"
         id="path8" />
      <path
         d="M412 180 l0 60"
         id="path9" />
      <path
         d="M435 200 l25 0 0 20 -25 0"
         id="path10" />
    </g>
  </g>
  <!-- version pill -->
  <g
     id="g12">
    <rect
       x="520"
       y="86"
       width="78"
       height="28"
       rx="14"
       ry="14"
       fill="#065F46"
       id="rect11" />
    <text
       x="559"
       y="106"
       text-anchor="middle"
       font-family="Inter, system-ui, '-apple-system', 'Segoe UI', Roboto, Ubuntu, Cantarell, 'Noto Sans', 'Helvetica Neue', Arial"
       font-size="16px"
       fill="#ffffff"
       id="text11">v2</text>
  </g>
  <!-- subtle sparkles to suggest "new" -->
  <g
     fill="#10B981"
     id="g14">
    <path
       d="M152 128 l10 -18 l10 18 l-10 18 z"
       opacity="0.6"
       transform="translate(496,-6) scale(0.6)"
       id="path12" />
    <path
       d="M152 128 l10 -18 l10 18 l-10 18 z"
       opacity="0.4"
       transform="translate(520,22) scale(0.4)"
       id="path13" />
    <path
       d="M152 128 l10 -18 l10 18 l-10 18 z"
       opacity="0.5"
       transform="translate(470,30) scale(0.5)"
       id="path14" />
  </g>
  <!-- corner fold -->
  <path
     d="M596,84 l24,0 l0,24"
     fill="none"
     stroke="white"
     stroke-width="2"
     opacity="0.7"
     id="path15" />
  <metadata
     id="metadata15">
    <rdf:RDF>
      <cc:Work
         rdf:about="">
        <dc:title>TestBench – Swagger/OpenAPI Docs (New)</dc:title>
      </cc:Work>
    </rdf:RDF>
  </metadata>
</svg>
